<mxfile host="65bd71144e" modified="2021-11-04T00:00:49.576Z" agent="5.0 (Windows NT 10.0; Win64; x64) AppleWebKit/537.36 (KHTML, like Gecko) Code/1.61.2 Chrome/91.0.4472.164 Electron/13.5.1 Safari/537.36" etag="xejwt4tCXapejqHZaXzs" version="15.6.8" type="embed">
    <diagram id="-fNZne_qBnM4dHdvdXTs" name="新規登録">
        <mxGraphModel dx="7197" dy="4162" grid="1" gridSize="10" guides="1" tooltips="1" connect="1" arrows="1" fold="1" page="1" pageScale="1" pageWidth="827" pageHeight="1169" math="0" shadow="0">
            <root>
                <mxCell id="0"/>
                <mxCell id="1" parent="0"/>
                <mxCell id="s4Upk8M1Tau3df58fpxX-10" value="&lt;font style=&quot;font-size: 51px;&quot;&gt;&lt;span style=&quot;font-size: 51px;&quot;&gt;新規登録&lt;/span&gt;&lt;/font&gt;" style="rounded=0;whiteSpace=wrap;html=1;fontColor=default;fillColor=default;strokeColor=default;verticalAlign=top;spacingTop=21;fontSize=51;fontStyle=0" parent="1" vertex="1">
                    <mxGeometry x="-580" y="-20" width="1590" height="1380" as="geometry"/>
                </mxCell>
                <mxCell id="10" value="" style="rounded=1;whiteSpace=wrap;html=1;fontSize=53;dashed=1;fillColor=none;" parent="1" vertex="1">
                    <mxGeometry x="80" y="-10" width="260" height="110" as="geometry"/>
                </mxCell>
                <mxCell id="s4Upk8M1Tau3df58fpxX-18" value="" style="shape=table;startSize=0;container=1;collapsible=0;childLayout=tableLayout;fontColor=default;strokeColor=default;fillColor=default;verticalAlign=top;spacing=0;horizontal=1;" parent="1" vertex="1">
                    <mxGeometry x="-420" y="110" width="1260" height="1020" as="geometry"/>
                </mxCell>
                <mxCell id="s4Upk8M1Tau3df58fpxX-19" value="" style="shape=partialRectangle;collapsible=0;dropTarget=0;pointerEvents=0;fillColor=none;top=0;left=0;bottom=0;right=0;points=[[0,0.5],[1,0.5]];portConstraint=eastwest;fontColor=default;strokeColor=default;verticalAlign=top;" parent="s4Upk8M1Tau3df58fpxX-18" vertex="1">
                    <mxGeometry width="1260" height="128" as="geometry"/>
                </mxCell>
                <mxCell id="s4Upk8M1Tau3df58fpxX-20" value="&lt;font style=&quot;font-size: 40px;&quot;&gt;従業員ID&lt;span style=&quot;white-space: pre; font-size: 40px;&quot;&gt;&#9;&lt;/span&gt;&lt;/font&gt;" style="shape=partialRectangle;html=1;whiteSpace=wrap;connectable=0;overflow=hidden;fillColor=none;top=0;left=0;bottom=0;right=0;pointerEvents=1;fontColor=default;strokeColor=default;verticalAlign=middle;align=left;spacingTop=2;spacingBottom=2;fontSize=40;" parent="s4Upk8M1Tau3df58fpxX-19" vertex="1">
                    <mxGeometry width="340" height="128" as="geometry">
                        <mxRectangle width="340" height="128" as="alternateBounds"/>
                    </mxGeometry>
                </mxCell>
                <mxCell id="s4Upk8M1Tau3df58fpxX-21" value="" style="shape=partialRectangle;html=1;whiteSpace=wrap;connectable=0;overflow=hidden;fillColor=none;top=0;left=0;bottom=0;right=0;pointerEvents=1;fontColor=default;strokeColor=default;verticalAlign=middle;spacingTop=2;spacingBottom=2;" parent="s4Upk8M1Tau3df58fpxX-19" vertex="1">
                    <mxGeometry x="340" width="920" height="128" as="geometry">
                        <mxRectangle width="920" height="128" as="alternateBounds"/>
                    </mxGeometry>
                </mxCell>
                <mxCell id="s4Upk8M1Tau3df58fpxX-22" value="" style="shape=partialRectangle;collapsible=0;dropTarget=0;pointerEvents=0;fillColor=none;top=0;left=0;bottom=0;right=0;points=[[0,0.5],[1,0.5]];portConstraint=eastwest;fontColor=default;strokeColor=default;verticalAlign=top;" parent="s4Upk8M1Tau3df58fpxX-18" vertex="1">
                    <mxGeometry y="128" width="1260" height="127" as="geometry"/>
                </mxCell>
                <mxCell id="s4Upk8M1Tau3df58fpxX-23" value="&lt;font style=&quot;font-size: 40px;&quot;&gt;従業員名&lt;/font&gt;" style="shape=partialRectangle;html=1;whiteSpace=wrap;connectable=0;overflow=hidden;fillColor=none;top=0;left=0;bottom=0;right=0;pointerEvents=1;fontColor=default;strokeColor=default;verticalAlign=middle;align=left;spacingTop=2;spacingBottom=2;fontSize=40;" parent="s4Upk8M1Tau3df58fpxX-22" vertex="1">
                    <mxGeometry width="340" height="127" as="geometry">
                        <mxRectangle width="340" height="127" as="alternateBounds"/>
                    </mxGeometry>
                </mxCell>
                <mxCell id="s4Upk8M1Tau3df58fpxX-24" value="&lt;span style=&quot;font-size: 35px&quot;&gt;&amp;nbsp;姓:　　　　　　　　　　名:&lt;/span&gt;" style="shape=partialRectangle;html=1;whiteSpace=wrap;connectable=0;overflow=hidden;fillColor=none;top=0;left=0;bottom=0;right=0;pointerEvents=1;fontColor=default;strokeColor=default;verticalAlign=middle;align=left;spacingTop=2;spacingBottom=2;fontSize=35;" parent="s4Upk8M1Tau3df58fpxX-22" vertex="1">
                    <mxGeometry x="340" width="920" height="127" as="geometry">
                        <mxRectangle width="920" height="127" as="alternateBounds"/>
                    </mxGeometry>
                </mxCell>
                <mxCell id="s4Upk8M1Tau3df58fpxX-25" value="" style="shape=partialRectangle;collapsible=0;dropTarget=0;pointerEvents=0;fillColor=none;top=0;left=0;bottom=0;right=0;points=[[0,0.5],[1,0.5]];portConstraint=eastwest;fontColor=default;strokeColor=default;verticalAlign=top;" parent="s4Upk8M1Tau3df58fpxX-18" vertex="1">
                    <mxGeometry y="255" width="1260" height="128" as="geometry"/>
                </mxCell>
                <mxCell id="s4Upk8M1Tau3df58fpxX-26" value="&lt;font style=&quot;font-size: 40px;&quot;&gt;従業員名（カナ）&lt;/font&gt;" style="shape=partialRectangle;html=1;whiteSpace=wrap;connectable=0;overflow=hidden;fillColor=none;top=0;left=0;bottom=0;right=0;pointerEvents=1;fontColor=default;strokeColor=default;verticalAlign=middle;align=left;spacingTop=2;spacingBottom=2;fontSize=40;" parent="s4Upk8M1Tau3df58fpxX-25" vertex="1">
                    <mxGeometry width="340" height="128" as="geometry">
                        <mxRectangle width="340" height="128" as="alternateBounds"/>
                    </mxGeometry>
                </mxCell>
                <mxCell id="s4Upk8M1Tau3df58fpxX-27" value="セイ:　　　　　　　　　メイ:" style="shape=partialRectangle;html=1;whiteSpace=wrap;connectable=0;overflow=hidden;fillColor=none;top=0;left=0;bottom=0;right=0;pointerEvents=1;fontColor=default;strokeColor=default;verticalAlign=middle;align=left;spacingTop=2;spacingBottom=2;fontSize=35;" parent="s4Upk8M1Tau3df58fpxX-25" vertex="1">
                    <mxGeometry x="340" width="920" height="128" as="geometry">
                        <mxRectangle width="920" height="128" as="alternateBounds"/>
                    </mxGeometry>
                </mxCell>
                <mxCell id="s4Upk8M1Tau3df58fpxX-28" value="" style="shape=partialRectangle;collapsible=0;dropTarget=0;pointerEvents=0;fillColor=none;top=0;left=0;bottom=0;right=0;points=[[0,0.5],[1,0.5]];portConstraint=eastwest;fontColor=default;strokeColor=default;verticalAlign=top;" parent="s4Upk8M1Tau3df58fpxX-18" vertex="1">
                    <mxGeometry y="383" width="1260" height="127" as="geometry"/>
                </mxCell>
                <mxCell id="s4Upk8M1Tau3df58fpxX-29" value="&lt;font style=&quot;font-size: 40px;&quot;&gt;電話番号&lt;/font&gt;" style="shape=partialRectangle;html=1;whiteSpace=wrap;connectable=0;overflow=hidden;fillColor=none;top=0;left=0;bottom=0;right=0;pointerEvents=1;fontColor=default;strokeColor=default;verticalAlign=middle;align=left;spacingTop=2;spacingBottom=2;fontSize=40;" parent="s4Upk8M1Tau3df58fpxX-28" vertex="1">
                    <mxGeometry width="340" height="127" as="geometry">
                        <mxRectangle width="340" height="127" as="alternateBounds"/>
                    </mxGeometry>
                </mxCell>
                <mxCell id="s4Upk8M1Tau3df58fpxX-30" value="" style="shape=partialRectangle;html=1;whiteSpace=wrap;connectable=0;overflow=hidden;fillColor=none;top=0;left=0;bottom=0;right=0;pointerEvents=1;fontColor=default;strokeColor=default;verticalAlign=middle;spacingTop=2;spacingBottom=2;" parent="s4Upk8M1Tau3df58fpxX-28" vertex="1">
                    <mxGeometry x="340" width="920" height="127" as="geometry">
                        <mxRectangle width="920" height="127" as="alternateBounds"/>
                    </mxGeometry>
                </mxCell>
                <mxCell id="s4Upk8M1Tau3df58fpxX-31" value="" style="shape=partialRectangle;collapsible=0;dropTarget=0;pointerEvents=0;fillColor=none;top=0;left=0;bottom=0;right=0;points=[[0,0.5],[1,0.5]];portConstraint=eastwest;fontColor=default;strokeColor=default;verticalAlign=top;" parent="s4Upk8M1Tau3df58fpxX-18" vertex="1">
                    <mxGeometry y="510" width="1260" height="128" as="geometry"/>
                </mxCell>
                <mxCell id="s4Upk8M1Tau3df58fpxX-32" value="性別" style="shape=partialRectangle;html=1;whiteSpace=wrap;connectable=0;overflow=hidden;fillColor=none;top=0;left=0;bottom=0;right=0;pointerEvents=1;fontColor=default;strokeColor=default;verticalAlign=middle;fontSize=40;align=left;spacingTop=2;spacingBottom=2;" parent="s4Upk8M1Tau3df58fpxX-31" vertex="1">
                    <mxGeometry width="340" height="128" as="geometry">
                        <mxRectangle width="340" height="128" as="alternateBounds"/>
                    </mxGeometry>
                </mxCell>
                <mxCell id="s4Upk8M1Tau3df58fpxX-33" value="" style="shape=partialRectangle;html=1;whiteSpace=wrap;connectable=0;overflow=hidden;fillColor=none;top=0;left=0;bottom=0;right=0;pointerEvents=1;fontColor=default;strokeColor=default;verticalAlign=middle;spacingTop=2;spacingBottom=2;" parent="s4Upk8M1Tau3df58fpxX-31" vertex="1">
                    <mxGeometry x="340" width="920" height="128" as="geometry">
                        <mxRectangle width="920" height="128" as="alternateBounds"/>
                    </mxGeometry>
                </mxCell>
                <mxCell id="s4Upk8M1Tau3df58fpxX-34" value="" style="shape=partialRectangle;collapsible=0;dropTarget=0;pointerEvents=0;fillColor=none;top=0;left=0;bottom=0;right=0;points=[[0,0.5],[1,0.5]];portConstraint=eastwest;fontColor=default;strokeColor=default;verticalAlign=top;" parent="s4Upk8M1Tau3df58fpxX-18" vertex="1">
                    <mxGeometry y="638" width="1260" height="127" as="geometry"/>
                </mxCell>
                <mxCell id="s4Upk8M1Tau3df58fpxX-35" value="生年月日" style="shape=partialRectangle;html=1;whiteSpace=wrap;connectable=0;overflow=hidden;fillColor=none;top=0;left=0;bottom=0;right=0;pointerEvents=1;fontColor=default;strokeColor=default;verticalAlign=middle;fontSize=40;align=left;spacingTop=2;spacingBottom=2;" parent="s4Upk8M1Tau3df58fpxX-34" vertex="1">
                    <mxGeometry width="340" height="127" as="geometry">
                        <mxRectangle width="340" height="127" as="alternateBounds"/>
                    </mxGeometry>
                </mxCell>
                <mxCell id="s4Upk8M1Tau3df58fpxX-36" value="" style="shape=partialRectangle;html=1;whiteSpace=wrap;connectable=0;overflow=hidden;fillColor=none;top=0;left=0;bottom=0;right=0;pointerEvents=1;fontColor=default;strokeColor=default;verticalAlign=middle;spacingTop=2;spacingBottom=2;" parent="s4Upk8M1Tau3df58fpxX-34" vertex="1">
                    <mxGeometry x="340" width="920" height="127" as="geometry">
                        <mxRectangle width="920" height="127" as="alternateBounds"/>
                    </mxGeometry>
                </mxCell>
                <mxCell id="s4Upk8M1Tau3df58fpxX-37" value="" style="shape=partialRectangle;collapsible=0;dropTarget=0;pointerEvents=0;fillColor=none;top=0;left=0;bottom=0;right=0;points=[[0,0.5],[1,0.5]];portConstraint=eastwest;fontColor=default;strokeColor=default;verticalAlign=top;" parent="s4Upk8M1Tau3df58fpxX-18" vertex="1">
                    <mxGeometry y="765" width="1260" height="128" as="geometry"/>
                </mxCell>
                <mxCell id="s4Upk8M1Tau3df58fpxX-38" value="所属店舗" style="shape=partialRectangle;html=1;whiteSpace=wrap;connectable=0;overflow=hidden;fillColor=none;top=0;left=0;bottom=0;right=0;pointerEvents=1;fontColor=default;strokeColor=default;verticalAlign=middle;fontSize=40;align=left;spacingTop=2;spacingBottom=2;" parent="s4Upk8M1Tau3df58fpxX-37" vertex="1">
                    <mxGeometry width="340" height="128" as="geometry">
                        <mxRectangle width="340" height="128" as="alternateBounds"/>
                    </mxGeometry>
                </mxCell>
                <mxCell id="s4Upk8M1Tau3df58fpxX-39" value="" style="shape=partialRectangle;html=1;whiteSpace=wrap;connectable=0;overflow=hidden;fillColor=none;top=0;left=0;bottom=0;right=0;pointerEvents=1;fontColor=default;strokeColor=default;verticalAlign=middle;spacingTop=2;spacingBottom=2;" parent="s4Upk8M1Tau3df58fpxX-37" vertex="1">
                    <mxGeometry x="340" width="920" height="128" as="geometry">
                        <mxRectangle width="920" height="128" as="alternateBounds"/>
                    </mxGeometry>
                </mxCell>
                <mxCell id="s4Upk8M1Tau3df58fpxX-40" value="" style="shape=partialRectangle;collapsible=0;dropTarget=0;pointerEvents=0;fillColor=none;top=0;left=0;bottom=0;right=0;points=[[0,0.5],[1,0.5]];portConstraint=eastwest;fontColor=default;strokeColor=default;verticalAlign=top;" parent="s4Upk8M1Tau3df58fpxX-18" vertex="1">
                    <mxGeometry y="893" width="1260" height="127" as="geometry"/>
                </mxCell>
                <mxCell id="s4Upk8M1Tau3df58fpxX-41" value="&lt;font style=&quot;font-size: 40px;&quot;&gt;雇用形態&lt;/font&gt;" style="shape=partialRectangle;html=1;whiteSpace=wrap;connectable=0;overflow=hidden;fillColor=none;top=0;left=0;bottom=0;right=0;pointerEvents=1;fontColor=default;strokeColor=default;verticalAlign=middle;align=left;spacingTop=2;spacingBottom=2;fontSize=40;" parent="s4Upk8M1Tau3df58fpxX-40" vertex="1">
                    <mxGeometry width="340" height="127" as="geometry">
                        <mxRectangle width="340" height="127" as="alternateBounds"/>
                    </mxGeometry>
                </mxCell>
                <mxCell id="s4Upk8M1Tau3df58fpxX-42" value="" style="shape=partialRectangle;html=1;whiteSpace=wrap;connectable=0;overflow=hidden;fillColor=none;top=0;left=0;bottom=0;right=0;pointerEvents=1;fontColor=default;strokeColor=default;verticalAlign=middle;spacingTop=2;spacingBottom=2;" parent="s4Upk8M1Tau3df58fpxX-40" vertex="1">
                    <mxGeometry x="340" width="920" height="127" as="geometry">
                        <mxRectangle width="920" height="127" as="alternateBounds"/>
                    </mxGeometry>
                </mxCell>
                <mxCell id="s4Upk8M1Tau3df58fpxX-59" value="&lt;div style=&quot;font-size: 50px;&quot;&gt;&lt;font style=&quot;font-size: 50px;&quot;&gt;&lt;b style=&quot;font-size: 50px;&quot;&gt;登録&lt;/b&gt;&lt;/font&gt;&lt;/div&gt;" style="rounded=1;whiteSpace=wrap;html=1;fontSize=50;strokeColor=none;fillColor=#007FFF;align=center;verticalAlign=top;spacing=0;spacingBottom=10;fontColor=#FFFFFF;" parent="1" vertex="1">
                    <mxGeometry x="130" y="1190" width="210" height="80" as="geometry"/>
                </mxCell>
                <mxCell id="s4Upk8M1Tau3df58fpxX-72" value="" style="rounded=0;whiteSpace=wrap;html=1;labelBackgroundColor=#FFFFFF;fontSize=35;fontColor=default;strokeColor=default;fillColor=default;align=left;verticalAlign=middle;" parent="1" vertex="1">
                    <mxGeometry y="277" width="280" height="70" as="geometry"/>
                </mxCell>
                <mxCell id="s4Upk8M1Tau3df58fpxX-73" value="" style="rounded=0;whiteSpace=wrap;html=1;labelBackgroundColor=#FFFFFF;fontSize=35;fontColor=default;strokeColor=default;fillColor=default;align=left;verticalAlign=middle;" parent="1" vertex="1">
                    <mxGeometry y="406" width="280" height="70" as="geometry"/>
                </mxCell>
                <mxCell id="s4Upk8M1Tau3df58fpxX-74" value="" style="rounded=0;whiteSpace=wrap;html=1;labelBackgroundColor=#FFFFFF;fontSize=35;fontColor=default;strokeColor=default;fillColor=default;align=left;verticalAlign=middle;" parent="1" vertex="1">
                    <mxGeometry x="400" y="277" width="280" height="70" as="geometry"/>
                </mxCell>
                <mxCell id="s4Upk8M1Tau3df58fpxX-75" value="" style="rounded=0;whiteSpace=wrap;html=1;labelBackgroundColor=#FFFFFF;fontSize=35;fontColor=default;strokeColor=default;fillColor=default;align=left;verticalAlign=middle;" parent="1" vertex="1">
                    <mxGeometry x="400" y="406" width="280" height="70" as="geometry"/>
                </mxCell>
                <mxCell id="s4Upk8M1Tau3df58fpxX-76" value="" style="rounded=0;whiteSpace=wrap;html=1;labelBackgroundColor=#FFFFFF;fontSize=35;fontColor=default;strokeColor=default;fillColor=default;align=left;verticalAlign=middle;" parent="1" vertex="1">
                    <mxGeometry y="530" width="750" height="70" as="geometry"/>
                </mxCell>
                <mxCell id="s4Upk8M1Tau3df58fpxX-79" value="&lt;span style=&quot;font-size: 40px&quot;&gt;男性&lt;/span&gt;" style="shape=ellipse;fillColor=#eeeeee;strokeColor=#999999;gradientColor=#cccccc;html=1;align=left;spacingLeft=4;fontSize=17;fontColor=#666666;labelPosition=right;shadow=0;labelBackgroundColor=#FFFFFF;" parent="1" vertex="1">
                    <mxGeometry x="110" y="670" width="50" height="50" as="geometry"/>
                </mxCell>
                <mxCell id="s4Upk8M1Tau3df58fpxX-80" value="&lt;span style=&quot;font-size: 40px&quot;&gt;女性&lt;/span&gt;" style="shape=ellipse;fillColor=#eeeeee;strokeColor=#999999;gradientColor=#cccccc;html=1;align=left;spacingLeft=4;fontSize=17;fontColor=#666666;labelPosition=right;shadow=0;labelBackgroundColor=#FFFFFF;" parent="1" vertex="1">
                    <mxGeometry x="340" y="670" width="50" height="50" as="geometry"/>
                </mxCell>
                <mxCell id="s4Upk8M1Tau3df58fpxX-134" value="" style="strokeWidth=1;shadow=0;dashed=0;align=center;html=1;shape=mxgraph.mockup.forms.comboBox;strokeColor=#000000;fillColor=#007FFF;align=left;fillColor2=#aaddff;mainText=;fontColor=#666666;fontSize=17;spacingLeft=3;labelBackgroundColor=#FFFFFF;labelBorderColor=#000000;" parent="1" vertex="1">
                    <mxGeometry y="910" width="750" height="70" as="geometry"/>
                </mxCell>
                <mxCell id="s4Upk8M1Tau3df58fpxX-136" value="" style="strokeWidth=1;shadow=0;dashed=0;align=center;html=1;shape=mxgraph.mockup.forms.comboBox;strokeColor=#000000;fillColor=#007FFF;align=left;fillColor2=#aaddff;mainText=;fontColor=#666666;fontSize=17;spacingLeft=3;labelBackgroundColor=#FFFFFF;labelBorderColor=#000000;" parent="1" vertex="1">
                    <mxGeometry y="1040" width="750" height="70" as="geometry"/>
                </mxCell>
                <mxCell id="s4Upk8M1Tau3df58fpxX-190" value="" style="sketch=0;aspect=fixed;pointerEvents=1;shadow=0;dashed=0;html=1;strokeColor=none;labelPosition=center;verticalLabelPosition=bottom;verticalAlign=top;align=center;fillColor=#00188D;shape=mxgraph.mscae.enterprise.calendar;labelBackgroundColor=#FFFFFF;fontSize=40;fontColor=default;" parent="1" vertex="1">
                    <mxGeometry x="610" y="800" width="50" height="41" as="geometry"/>
                </mxCell>
                <mxCell id="s4Upk8M1Tau3df58fpxX-191" value="" style="rounded=0;whiteSpace=wrap;html=1;labelBackgroundColor=#FFFFFF;fontSize=35;fontColor=default;strokeColor=default;fillColor=default;align=left;verticalAlign=middle;" parent="1" vertex="1">
                    <mxGeometry x="10" y="785.5" width="580" height="70" as="geometry"/>
                </mxCell>
                <mxCell id="s4Upk8M1Tau3df58fpxX-192" style="edgeStyle=orthogonalEdgeStyle;rounded=0;orthogonalLoop=1;jettySize=auto;html=1;exitX=0.5;exitY=1;exitDx=0;exitDy=0;fontSize=50;fontColor=default;strokeColor=default;labelBackgroundColor=default;" parent="1" source="s4Upk8M1Tau3df58fpxX-59" target="s4Upk8M1Tau3df58fpxX-59" edge="1">
                    <mxGeometry relative="1" as="geometry"/>
                </mxCell>
                <mxCell id="s4Upk8M1Tau3df58fpxX-193" value="" style="rounded=0;whiteSpace=wrap;html=1;labelBackgroundColor=#FFFFFF;fontSize=35;fontColor=default;strokeColor=default;fillColor=default;align=left;verticalAlign=middle;" parent="1" vertex="1">
                    <mxGeometry x="-10" y="150" width="750" height="70" as="geometry"/>
                </mxCell>
                <mxCell id="3" value="➀" style="rounded=0;whiteSpace=wrap;html=1;fontSize=53;" parent="1" vertex="1">
                    <mxGeometry x="-830" y="-380" width="120" height="120" as="geometry"/>
                </mxCell>
                <mxCell id="9" value="" style="rounded=1;whiteSpace=wrap;html=1;fontSize=53;dashed=1;fillColor=none;" parent="1" vertex="1">
                    <mxGeometry x="-420" y="140" width="190" height="70" as="geometry"/>
                </mxCell>
                <mxCell id="13" value="" style="endArrow=classic;html=1;rounded=0;fontSize=53;exitX=1;exitY=0.5;exitDx=0;exitDy=0;entryX=0;entryY=0.5;entryDx=0;entryDy=0;strokeWidth=2;" parent="1" source="3" target="10" edge="1">
                    <mxGeometry width="50" height="50" relative="1" as="geometry">
                        <mxPoint x="-230" y="-430" as="sourcePoint"/>
                        <mxPoint x="-50" y="-140" as="targetPoint"/>
                    </mxGeometry>
                </mxCell>
                <mxCell id="17" value="➀" style="rounded=0;whiteSpace=wrap;html=1;fontSize=53;" parent="1" vertex="1">
                    <mxGeometry x="-820" y="600" width="120" height="120" as="geometry"/>
                </mxCell>
                <mxCell id="18" value="➀" style="rounded=0;whiteSpace=wrap;html=1;fontSize=53;" parent="1" vertex="1">
                    <mxGeometry x="-820" y="420" width="120" height="120" as="geometry"/>
                </mxCell>
                <mxCell id="19" value="➀" style="rounded=0;whiteSpace=wrap;html=1;fontSize=53;" parent="1" vertex="1">
                    <mxGeometry x="-820" y="210" width="120" height="120" as="geometry"/>
                </mxCell>
                <mxCell id="20" value="➀" style="rounded=0;whiteSpace=wrap;html=1;fontSize=53;" parent="1" vertex="1">
                    <mxGeometry x="-827" y="-160" width="120" height="120" as="geometry"/>
                </mxCell>
                <mxCell id="21" value="" style="endArrow=classic;html=1;rounded=0;fontSize=53;exitX=1;exitY=0.5;exitDx=0;exitDy=0;entryX=0;entryY=0.5;entryDx=0;entryDy=0;strokeWidth=2;" parent="1" source="20" target="9" edge="1">
                    <mxGeometry width="50" height="50" relative="1" as="geometry">
                        <mxPoint x="-640" y="-110.00000000000023" as="sourcePoint"/>
                        <mxPoint x="150" y="255" as="targetPoint"/>
                    </mxGeometry>
                </mxCell>
                <mxCell id="22" value="" style="rounded=1;whiteSpace=wrap;html=1;fontSize=53;dashed=1;fillColor=none;" parent="1" vertex="1">
                    <mxGeometry x="-45" y="95" width="820" height="160" as="geometry"/>
                </mxCell>
                <mxCell id="23" value="" style="endArrow=classic;html=1;rounded=0;fontSize=53;exitX=1;exitY=0.5;exitDx=0;exitDy=0;entryX=0;entryY=0.5;entryDx=0;entryDy=0;strokeWidth=2;" parent="1" source="19" target="22" edge="1">
                    <mxGeometry width="50" height="50" relative="1" as="geometry">
                        <mxPoint x="-690" y="20" as="sourcePoint"/>
                        <mxPoint x="-410" y="185" as="targetPoint"/>
                    </mxGeometry>
                </mxCell>
                <mxCell id="24" value="" style="rounded=1;whiteSpace=wrap;html=1;fontSize=53;dashed=1;fillColor=none;" parent="1" vertex="1">
                    <mxGeometry x="-20" y="257" width="340" height="110" as="geometry"/>
                </mxCell>
                <mxCell id="25" value="" style="rounded=1;whiteSpace=wrap;html=1;fontSize=53;dashed=1;fillColor=none;" parent="1" vertex="1">
                    <mxGeometry x="380" y="250" width="340" height="110" as="geometry"/>
                </mxCell>
                <mxCell id="26" value="" style="rounded=1;whiteSpace=wrap;html=1;fontSize=53;dashed=1;fillColor=none;" parent="1" vertex="1">
                    <mxGeometry x="-20" y="386" width="340" height="110" as="geometry"/>
                </mxCell>
                <mxCell id="27" value="" style="rounded=1;whiteSpace=wrap;html=1;fontSize=53;dashed=1;fillColor=none;" parent="1" vertex="1">
                    <mxGeometry x="380" y="386" width="340" height="110" as="geometry"/>
                </mxCell>
                <mxCell id="28" value="" style="rounded=1;whiteSpace=wrap;html=1;fontSize=53;dashed=1;fillColor=none;" parent="1" vertex="1">
                    <mxGeometry x="-10" y="500" width="810" height="130" as="geometry"/>
                </mxCell>
                <mxCell id="29" value="" style="rounded=1;whiteSpace=wrap;html=1;fontSize=53;dashed=1;fillColor=none;" parent="1" vertex="1">
                    <mxGeometry x="100" y="650" width="175" height="90" as="geometry"/>
                </mxCell>
                <mxCell id="30" value="" style="rounded=1;whiteSpace=wrap;html=1;fontSize=53;dashed=1;fillColor=none;" parent="1" vertex="1">
                    <mxGeometry x="-20" y="750" width="750" height="120" as="geometry"/>
                </mxCell>
                <mxCell id="31" value="" style="rounded=1;whiteSpace=wrap;html=1;fontSize=53;dashed=1;fillColor=none;" parent="1" vertex="1">
                    <mxGeometry x="-20" y="885" width="800" height="120" as="geometry"/>
                </mxCell>
                <mxCell id="32" value="" style="rounded=1;whiteSpace=wrap;html=1;fontSize=53;dashed=1;fillColor=none;" parent="1" vertex="1">
                    <mxGeometry x="-20" y="1015" width="800" height="120" as="geometry"/>
                </mxCell>
                <mxCell id="33" value="" style="rounded=1;whiteSpace=wrap;html=1;fontSize=53;dashed=1;fillColor=none;" parent="1" vertex="1">
                    <mxGeometry x="110" y="1169" width="250" height="111" as="geometry"/>
                </mxCell>
                <mxCell id="34" value="➀" style="rounded=0;whiteSpace=wrap;html=1;fontSize=53;" parent="1" vertex="1">
                    <mxGeometry x="-820" y="780" width="120" height="120" as="geometry"/>
                </mxCell>
                <mxCell id="35" value="➀" style="rounded=0;whiteSpace=wrap;html=1;fontSize=53;" parent="1" vertex="1">
                    <mxGeometry x="-820" y="970" width="120" height="120" as="geometry"/>
                </mxCell>
                <mxCell id="36" value="➀" style="rounded=0;whiteSpace=wrap;html=1;fontSize=53;" parent="1" vertex="1">
                    <mxGeometry x="-820" y="1190" width="120" height="120" as="geometry"/>
                </mxCell>
                <mxCell id="37" value="➀" style="rounded=0;whiteSpace=wrap;html=1;fontSize=53;" parent="1" vertex="1">
                    <mxGeometry x="-820" y="1430" width="120" height="120" as="geometry"/>
                </mxCell>
                <mxCell id="38" value="➀" style="rounded=0;whiteSpace=wrap;html=1;fontSize=53;" parent="1" vertex="1">
                    <mxGeometry x="-580" y="1450" width="120" height="120" as="geometry"/>
                </mxCell>
                <mxCell id="39" value="➀" style="rounded=0;whiteSpace=wrap;html=1;fontSize=53;" parent="1" vertex="1">
                    <mxGeometry x="-370" y="1440" width="120" height="120" as="geometry"/>
                </mxCell>
                <mxCell id="40" value="➀" style="rounded=0;whiteSpace=wrap;html=1;fontSize=53;" parent="1" vertex="1">
                    <mxGeometry x="-130" y="1440" width="120" height="120" as="geometry"/>
                </mxCell>
                <mxCell id="41" value="" style="endArrow=classic;html=1;rounded=0;fontSize=53;exitX=1;exitY=0.5;exitDx=0;exitDy=0;entryX=0;entryY=0.5;entryDx=0;entryDy=0;strokeWidth=2;" parent="1" source="18" target="24" edge="1">
                    <mxGeometry width="50" height="50" relative="1" as="geometry">
                        <mxPoint x="-690" y="280" as="sourcePoint"/>
                        <mxPoint x="-35" y="185" as="targetPoint"/>
                    </mxGeometry>
                </mxCell>
                <mxCell id="42" value="" style="endArrow=classic;html=1;rounded=0;fontSize=53;exitX=1;exitY=0.5;exitDx=0;exitDy=0;entryX=0;entryY=0.5;entryDx=0;entryDy=0;strokeWidth=2;" parent="1" source="17" target="25" edge="1">
                    <mxGeometry width="50" height="50" relative="1" as="geometry">
                        <mxPoint x="-690" y="490" as="sourcePoint"/>
                        <mxPoint x="-10" y="322" as="targetPoint"/>
                    </mxGeometry>
                </mxCell>
                <mxCell id="44" value="" style="endArrow=classic;html=1;rounded=0;fontSize=53;exitX=1;exitY=0.5;exitDx=0;exitDy=0;entryX=0;entryY=0.5;entryDx=0;entryDy=0;strokeWidth=2;" parent="1" source="34" target="26" edge="1">
                    <mxGeometry width="50" height="50" relative="1" as="geometry">
                        <mxPoint x="-690" y="670" as="sourcePoint"/>
                        <mxPoint x="390" y="315" as="targetPoint"/>
                    </mxGeometry>
                </mxCell>
                <mxCell id="45" value="" style="endArrow=classic;html=1;rounded=0;fontSize=53;exitX=1;exitY=0.5;exitDx=0;exitDy=0;entryX=0;entryY=0.5;entryDx=0;entryDy=0;strokeWidth=2;" parent="1" source="35" target="27" edge="1">
                    <mxGeometry width="50" height="50" relative="1" as="geometry">
                        <mxPoint x="-690" y="850" as="sourcePoint"/>
                        <mxPoint x="-10" y="451" as="targetPoint"/>
                    </mxGeometry>
                </mxCell>
                <mxCell id="47" value="" style="endArrow=classic;html=1;rounded=0;fontSize=53;exitX=1;exitY=0.5;exitDx=0;exitDy=0;entryX=0;entryY=0.5;entryDx=0;entryDy=0;strokeWidth=2;" parent="1" source="36" target="28" edge="1">
                    <mxGeometry width="50" height="50" relative="1" as="geometry">
                        <mxPoint x="-690" y="1040" as="sourcePoint"/>
                        <mxPoint x="390" y="451" as="targetPoint"/>
                    </mxGeometry>
                </mxCell>
                <mxCell id="48" style="edgeStyle=orthogonalEdgeStyle;rounded=0;orthogonalLoop=1;jettySize=auto;html=1;fontSize=53;strokeWidth=2;" parent="1" source="28" target="28" edge="1">
                    <mxGeometry relative="1" as="geometry"/>
                </mxCell>
                <mxCell id="49" value="" style="endArrow=classic;html=1;rounded=0;fontSize=53;exitX=1;exitY=0.5;exitDx=0;exitDy=0;entryX=0;entryY=0.5;entryDx=0;entryDy=0;strokeWidth=2;" parent="1" source="37" target="29" edge="1">
                    <mxGeometry width="50" height="50" relative="1" as="geometry">
                        <mxPoint x="-690" y="1260" as="sourcePoint"/>
                        <mxPoint y="575" as="targetPoint"/>
                    </mxGeometry>
                </mxCell>
                <mxCell id="50" value="" style="endArrow=classic;html=1;rounded=0;fontSize=53;exitX=0.5;exitY=0;exitDx=0;exitDy=0;strokeWidth=2;" parent="1" source="38" edge="1">
                    <mxGeometry width="50" height="50" relative="1" as="geometry">
                        <mxPoint x="-690" y="1500" as="sourcePoint"/>
                        <mxPoint x="-20" y="820" as="targetPoint"/>
                    </mxGeometry>
                </mxCell>
                <mxCell id="51" value="" style="endArrow=classic;html=1;rounded=0;fontSize=53;exitX=0.5;exitY=0;exitDx=0;exitDy=0;strokeWidth=2;entryX=0;entryY=0.5;entryDx=0;entryDy=0;" parent="1" source="39" target="31" edge="1">
                    <mxGeometry width="50" height="50" relative="1" as="geometry">
                        <mxPoint x="-510" y="1460" as="sourcePoint"/>
                        <mxPoint x="-10" y="830" as="targetPoint"/>
                    </mxGeometry>
                </mxCell>
                <mxCell id="52" value="" style="endArrow=classic;html=1;rounded=0;fontSize=53;exitX=0.5;exitY=0;exitDx=0;exitDy=0;strokeWidth=2;entryX=0;entryY=0.5;entryDx=0;entryDy=0;" parent="1" source="40" target="32" edge="1">
                    <mxGeometry width="50" height="50" relative="1" as="geometry">
                        <mxPoint x="-300" y="1450" as="sourcePoint"/>
                        <mxPoint x="-10" y="955" as="targetPoint"/>
                    </mxGeometry>
                </mxCell>
                <mxCell id="16" value="➀" style="rounded=0;whiteSpace=wrap;html=1;fontSize=53;" parent="1" vertex="1">
                    <mxGeometry x="100" y="1450" width="120" height="120" as="geometry"/>
                </mxCell>
                <mxCell id="54" value="" style="endArrow=classic;html=1;rounded=0;fontSize=53;exitX=0.5;exitY=0;exitDx=0;exitDy=0;strokeWidth=2;entryX=0.5;entryY=1;entryDx=0;entryDy=0;" parent="1" source="16" target="33" edge="1">
                    <mxGeometry width="50" height="50" relative="1" as="geometry">
                        <mxPoint x="490" y="1765" as="sourcePoint"/>
                        <mxPoint x="540" y="1400" as="targetPoint"/>
                    </mxGeometry>
                </mxCell>
                <mxCell id="r9LA4vdRY_tP3EvmylRg-54" value="➀" style="rounded=0;whiteSpace=wrap;html=1;fontSize=53;" parent="1" vertex="1">
                    <mxGeometry x="-830" y="30" width="120" height="120" as="geometry"/>
                </mxCell>
                <mxCell id="r9LA4vdRY_tP3EvmylRg-55" value="" style="rounded=1;whiteSpace=wrap;html=1;fontSize=53;dashed=1;fillColor=none;" parent="1" vertex="1">
                    <mxGeometry x="-460" y="70" width="1330" height="1100" as="geometry"/>
                </mxCell>
                <mxCell id="r9LA4vdRY_tP3EvmylRg-56" value="" style="endArrow=classic;html=1;rounded=0;fontSize=53;exitX=1;exitY=0.5;exitDx=0;exitDy=0;entryX=0;entryY=0.5;entryDx=0;entryDy=0;strokeWidth=2;" parent="1" source="r9LA4vdRY_tP3EvmylRg-54" target="r9LA4vdRY_tP3EvmylRg-55" edge="1">
                    <mxGeometry width="50" height="50" relative="1" as="geometry">
                        <mxPoint x="-697" y="-90" as="sourcePoint"/>
                        <mxPoint x="-409.9999999999991" y="185" as="targetPoint"/>
                    </mxGeometry>
                </mxCell>
            </root>
        </mxGraphModel>
    </diagram>
</mxfile>